<svg xmlns="http://www.w3.org/2000/svg" width="1800" height="900" viewBox="0 0 1800 900">
  <defs>
    <linearGradient id="bg" x1="0" y1="0" x2="1" y2="1">
      <stop offset="0%" stop-color="#0d1117"/><stop offset="100%" stop-color="#161b22"/>
    </linearGradient>
    <linearGradient id="card" x1="0" y1="0" x2="0" y2="1">
      <stop offset="0%" stop-color="#1e2530"/><stop offset="100%" stop-color="#161b22"/>
    </linearGradient>
    <linearGradient id="dD" x1="0" y1="0" x2="0" y2="1">
      <stop offset="0%" stop-color="#f97316"/><stop offset="100%" stop-color="#c2410c"/>
    </linearGradient>
    <linearGradient id="killCard" x1="0" y1="0" x2="0" y2="1">
      <stop offset="0%" stop-color="#3d0e0e"/><stop offset="100%" stop-color="#1a0505"/>
    </linearGradient>
    <linearGradient id="okCard" x1="0" y1="0" x2="0" y2="1">
      <stop offset="0%" stop-color="#0e3d1a"/><stop offset="100%" stop-color="#051a0a"/>
    </linearGradient>
    <filter id="glow"><feGaussianBlur stdDeviation="10" result="b"/>
      <feMerge><feMergeNode in="b"/><feMergeNode in="SourceGraphic"/></feMerge></filter>
    <filter id="shadow"><feDropShadow dx="0" dy="3" stdDeviation="6" flood-color="#00000088"/></filter>
    <marker id="arO" markerWidth="8" markerHeight="8" refX="6" refY="3" orient="auto">
      <path d="M0,0 L0,6 L8,3 z" fill="#f97316" opacity="0.9"/></marker>
    <marker id="arW" markerWidth="8" markerHeight="8" refX="6" refY="3" orient="auto">
      <path d="M0,0 L0,6 L8,3 z" fill="#8b949e" opacity="0.7"/></marker>
    <marker id="arG" markerWidth="8" markerHeight="8" refX="6" refY="3" orient="auto">
      <path d="M0,0 L0,6 L8,3 z" fill="#00ff99" opacity="0.9"/></marker>
    <marker id="arR" markerWidth="8" markerHeight="8" refX="6" refY="3" orient="auto">
      <path d="M0,0 L0,6 L8,3 z" fill="#ff7b72" opacity="0.9"/></marker>
  </defs>

  <!-- BG -->
  <rect width="1800" height="900" fill="url(#bg)"/>
  <g opacity="0.035" stroke="#fff" stroke-width="1">
    <line x1="0" y1="180" x2="1800" y2="180"/><line x1="0" y1="360" x2="1800" y2="360"/>
    <line x1="0" y1="540" x2="1800" y2="540"/><line x1="0" y1="720" x2="1800" y2="720"/>
    <line x1="300" y1="0" x2="300" y2="900"/><line x1="600" y1="0" x2="600" y2="900"/>
    <line x1="900" y1="0" x2="900" y2="900"/><line x1="1200" y1="0" x2="1200" y2="900"/>
    <line x1="1500" y1="0" x2="1500" y2="900"/>
  </g>

  <!-- Title -->
  <text x="900" y="48" text-anchor="middle" font-family="'Segoe UI',sans-serif" font-size="28" font-weight="700" fill="#e6edf3">Pipeline D — Live Practice Mode</text>
  <text x="900" y="76" text-anchor="middle" font-family="'Segoe UI',sans-serif" font-size="14" fill="#8b949e">큐잉 스크립트 생성 → 아바타/스틱맨 시연 → TTS 음성 안내 → 카메라 자세 추정 → 실시간 교정 피드백</text>
  <line x1="40" y1="90" x2="1760" y2="90" stroke="#30363d" stroke-width="1.5"/>

  <!-- ── COLUMN LABELS ── -->
  <text x="120" y="114" text-anchor="middle" font-family="'Segoe UI',sans-serif" font-size="11" fill="#8b949e" letter-spacing="1">INPUT</text>
  <text x="380" y="114" text-anchor="middle" font-family="'Segoe UI',sans-serif" font-size="11" fill="#8b949e" letter-spacing="1">CUE ENGINE</text>
  <text x="660" y="114" text-anchor="middle" font-family="'Segoe UI',sans-serif" font-size="11" fill="#8b949e" letter-spacing="1">RENDER / TTS</text>
  <text x="980" y="114" text-anchor="middle" font-family="'Segoe UI',sans-serif" font-size="11" fill="#8b949e" letter-spacing="1">POSE ESTIMATION</text>
  <text x="1320" y="114" text-anchor="middle" font-family="'Segoe UI',sans-serif" font-size="11" fill="#8b949e" letter-spacing="1">ALIGNMENT SCORE</text>
  <text x="1630" y="114" text-anchor="middle" font-family="'Segoe UI',sans-serif" font-size="11" fill="#8b949e" letter-spacing="1">FEEDBACK HUD</text>

  <!-- ═══ ROW 1: TOP FLOW (cue gen → avatar → camera → score → hud) ═══ -->

  <!-- IN-1: Top-K Pose (from Pipeline A) -->
  <g filter="url(#shadow)">
    <rect x="30" y="130" width="180" height="100" rx="10" fill="url(#card)" stroke="#f97316" stroke-width="1.5"/>
    <rect x="30" y="130" width="5" height="100" rx="2" fill="#f97316"/>
  </g>
  <text x="122" y="158" text-anchor="middle" font-family="'Segoe UI',sans-serif" font-size="12" font-weight="700" fill="#f97316">Top-K 포즈</text>
  <text x="122" y="175" text-anchor="middle" font-family="'Segoe UI',sans-serif" font-size="11" fill="#e6edf3">Pipeline A 출력</text>
  <text x="122" y="192" text-anchor="middle" font-family="'Segoe UI',sans-serif" font-size="10" fill="#8b949e">pose_id · benefit tags</text>
  <text x="122" y="207" text-anchor="middle" font-family="'Segoe UI',sans-serif" font-size="10" fill="#8b949e">Kill-Switch 통과 확인</text>
  <text x="122" y="222" text-anchor="middle" font-family="'Segoe UI',sans-serif" font-size="9" fill="#f97316">instructor_cue_priority</text>

  <!-- IN-2: Sequence Order -->
  <g filter="url(#shadow)">
    <rect x="30" y="252" width="180" height="80" rx="10" fill="url(#card)" stroke="#f97316" stroke-width="1.5"/>
    <rect x="30" y="252" width="5" height="80" rx="2" fill="#f97316"/>
  </g>
  <text x="122" y="275" text-anchor="middle" font-family="'Segoe UI',sans-serif" font-size="12" font-weight="700" fill="#f97316">수련 시퀀스</text>
  <text x="122" y="293" text-anchor="middle" font-family="'Segoe UI',sans-serif" font-size="10" fill="#8b949e">warm-up → main → cool-down</text>
  <text x="122" y="309" text-anchor="middle" font-family="'Segoe UI',sans-serif" font-size="10" fill="#8b949e">hold_seconds · reps · side</text>
  <text x="122" y="322" text-anchor="middle" font-family="'Segoe UI',sans-serif" font-size="9" fill="#f97316">JSON sequence plan</text>

  <!-- Arrow IN → Cue Engine -->
  <path d="M210,175 L270,175" fill="none" stroke="#f97316" stroke-width="2" marker-end="url(#arO)"/>
  <path d="M210,285 C240,285 240,200 270,200" fill="none" stroke="#f97316" stroke-width="1.5" stroke-dasharray="5,3" marker-end="url(#arO)"/>

  <!-- CUE-1: Cue Script Generator -->
  <g filter="url(#shadow)">
    <rect x="270" y="130" width="220" height="130" rx="10" fill="url(#card)" stroke="#f97316" stroke-width="1.8"/>
    <rect x="270" y="130" width="5" height="130" rx="2" fill="#f97316"/>
  </g>
  <text x="382" y="158" text-anchor="middle" font-family="'Segoe UI',sans-serif" font-size="13" font-weight="700" fill="#f97316">큐잉 스크립트 생성</text>
  <text x="382" y="176" text-anchor="middle" font-family="'Segoe UI',sans-serif" font-size="11" fill="#e6edf3">Ollama Mistral (local)</text>
  <text x="382" y="193" text-anchor="middle" font-family="'Segoe UI',sans-serif" font-size="10" fill="#8b949e">→ 해요체 한국어 큐잉</text>
  <text x="382" y="210" text-anchor="middle" font-family="'Segoe UI',sans-serif" font-size="10" fill="#8b949e">"오른 발을 뒤로 크게 내딛어요"</text>
  <text x="382" y="227" text-anchor="middle" font-family="'Segoe UI',sans-serif" font-size="10" fill="#ff7b72">부상 조건별 수정 큐 삽입</text>
  <text x="382" y="244" text-anchor="middle" font-family="'Segoe UI',sans-serif" font-size="10" fill="#8b949e">hold_seconds → 타이머 큐</text>
  <text x="382" y="255" text-anchor="middle" font-family="'Segoe UI',sans-serif" font-size="9" fill="#f97316">cue_script.json</text>

  <!-- Arrow Cue → TTS + Avatar (split) -->
  <path d="M490,175 C530,175 530,185 550,185" fill="none" stroke="#f97316" stroke-width="2" marker-end="url(#arO)"/>
  <path d="M490,210 C530,210 530,335 550,335" fill="none" stroke="#f97316" stroke-width="1.5" stroke-dasharray="5,3" marker-end="url(#arO)"/>

  <!-- TTS-1: TTS Engine -->
  <g filter="url(#shadow)">
    <rect x="550" y="130" width="220" height="110" rx="10" fill="url(#card)" stroke="#c084fc" stroke-width="1.5"/>
    <rect x="550" y="130" width="5" height="110" rx="2" fill="#c084fc"/>
  </g>
  <text x="662" y="158" text-anchor="middle" font-family="'Segoe UI',sans-serif" font-size="13" font-weight="700" fill="#c084fc">TTS 음성 안내</text>
  <!-- Speaker icon -->
  <path d="M575,178 L582,172 L582,192 L575,186 Z" fill="#c084fc"/>
  <path d="M584,175 Q592,182 584,189" fill="none" stroke="#c084fc" stroke-width="1.5"/>
  <path d="M586,171 Q598,182 586,193" fill="none" stroke="#c084fc" stroke-width="1.5"/>
  <text x="662" y="178" text-anchor="middle" font-family="'Segoe UI',sans-serif" font-size="11" fill="#e6edf3">edge-TTS / pyttsx3</text>
  <text x="662" y="195" text-anchor="middle" font-family="'Segoe UI',sans-serif" font-size="10" fill="#8b949e">한국어 여성 음성 스트림</text>
  <text x="662" y="212" text-anchor="middle" font-family="'Segoe UI',sans-serif" font-size="10" fill="#8b949e">beat-sync: hold count 1…5</text>
  <text x="662" y="228" text-anchor="middle" font-family="'Segoe UI',sans-serif" font-size="9" fill="#c084fc">WebAudio API / chunked SSE</text>

  <!-- Avatar-1: Stickman Renderer -->
  <g filter="url(#shadow)">
    <rect x="550" y="290" width="220" height="130" rx="10" fill="url(#card)" stroke="#f97316" stroke-width="1.5"/>
    <rect x="550" y="290" width="5" height="130" rx="2" fill="#f97316"/>
  </g>
  <text x="662" y="316" text-anchor="middle" font-family="'Segoe UI',sans-serif" font-size="13" font-weight="700" fill="#f97316">아바타 / 스틱맨 렌더러</text>
  <!-- Stickman drawing -->
  <circle cx="585" cy="335" r="10" fill="none" stroke="#f97316" stroke-width="1.5"/>
  <line x1="585" y1="345" x2="585" y2="375" stroke="#f97316" stroke-width="1.5"/>
  <line x1="585" y1="355" x2="572" y2="368" stroke="#f97316" stroke-width="1.5"/>
  <line x1="585" y1="355" x2="598" y2="362" stroke="#f97316" stroke-width="1.5"/>
  <line x1="585" y1="375" x2="576" y2="392" stroke="#f97316" stroke-width="1.5"/>
  <line x1="585" y1="375" x2="596" y2="390" stroke="#f97316" stroke-width="1.5"/>
  <text x="662" y="340" text-anchor="middle" font-family="'Segoe UI',sans-serif" font-size="11" fill="#e6edf3">33-keypoint skeleton</text>
  <text x="662" y="357" text-anchor="middle" font-family="'Segoe UI',sans-serif" font-size="10" fill="#8b949e">target_pose landmarks</text>
  <text x="662" y="374" text-anchor="middle" font-family="'Segoe UI',sans-serif" font-size="10" fill="#8b949e">Three.js / Canvas 2D</text>
  <text x="662" y="391" text-anchor="middle" font-family="'Segoe UI',sans-serif" font-size="10" fill="#8b949e">애니메이션 전환 tween</text>
  <text x="662" y="407" text-anchor="middle" font-family="'Segoe UI',sans-serif" font-size="9" fill="#f97316">target_keypoints.json</text>

  <!-- Arrow TTS → Camera feed label -->
  <path d="M770,185 C820,185 820,270 860,270" fill="none" stroke="#c084fc" stroke-width="1.5" stroke-dasharray="5,3" marker-end="url(#arW)"/>
  <!-- Arrow Avatar → Camera compare -->
  <path d="M770,355 C820,355 820,350 860,350" fill="none" stroke="#f97316" stroke-width="2" marker-end="url(#arO)"/>

  <!-- CAMERA-1: Camera Feed -->
  <g filter="url(#shadow)">
    <rect x="860" y="200" width="220" height="110" rx="10" fill="url(#card)" stroke="#58a6ff" stroke-width="1.8"/>
    <rect x="860" y="200" width="5" height="110" rx="2" fill="#58a6ff"/>
  </g>
  <text x="972" y="228" text-anchor="middle" font-family="'Segoe UI',sans-serif" font-size="13" font-weight="700" fill="#58a6ff">카메라 피드</text>
  <!-- Camera icon -->
  <rect x="877" y="235" width="28" height="22" rx="3" fill="none" stroke="#58a6ff" stroke-width="1.5"/>
  <circle cx="891" cy="246" r="7" fill="none" stroke="#58a6ff" stroke-width="1.5"/>
  <rect x="906" y="234" width="8" height="6" rx="1" fill="#58a6ff"/>
  <text x="972" y="248" text-anchor="middle" font-family="'Segoe UI',sans-serif" font-size="11" fill="#e6edf3">WebRTC / OpenCV</text>
  <text x="972" y="265" text-anchor="middle" font-family="'Segoe UI',sans-serif" font-size="10" fill="#8b949e">30 fps 실시간 스트림</text>
  <text x="972" y="282" text-anchor="middle" font-family="'Segoe UI',sans-serif" font-size="10" fill="#8b949e">frame → MediaPipe 입력</text>
  <text x="972" y="298" text-anchor="middle" font-family="'Segoe UI',sans-serif" font-size="9" fill="#58a6ff">getUserMedia() API</text>

  <!-- POSE-1: MediaPipe Pose -->
  <g filter="url(#shadow)">
    <rect x="860" y="340" width="220" height="130" rx="10" fill="url(#card)" stroke="#58a6ff" stroke-width="1.8"/>
    <rect x="860" y="340" width="5" height="130" rx="2" fill="#58a6ff"/>
  </g>
  <text x="972" y="366" text-anchor="middle" font-family="'Segoe UI',sans-serif" font-size="13" font-weight="700" fill="#58a6ff">MediaPipe Pose</text>
  <!-- Body landmark dots -->
  <circle cx="882" cy="385" r="4" fill="#58a6ff"/>
  <circle cx="882" cy="395" r="3" fill="#58a6ff" opacity="0.7"/>
  <circle cx="877" cy="408" r="3" fill="#58a6ff" opacity="0.7"/>
  <circle cx="887" cy="408" r="3" fill="#58a6ff" opacity="0.7"/>
  <circle cx="882" cy="420" r="3" fill="#58a6ff" opacity="0.5"/>
  <circle cx="877" cy="432" r="3" fill="#58a6ff" opacity="0.5"/>
  <circle cx="887" cy="432" r="3" fill="#58a6ff" opacity="0.5"/>
  <line x1="882" y1="385" x2="882" y2="432" stroke="#58a6ff" stroke-width="1" opacity="0.5"/>
  <text x="972" y="390" text-anchor="middle" font-family="'Segoe UI',sans-serif" font-size="11" fill="#e6edf3">33 랜드마크 추출</text>
  <text x="972" y="407" text-anchor="middle" font-family="'Segoe UI',sans-serif" font-size="10" fill="#8b949e">BlazePose GHUM model</text>
  <text x="972" y="424" text-anchor="middle" font-family="'Segoe UI',sans-serif" font-size="10" fill="#8b949e">3D (x, y, z, visibility)</text>
  <text x="972" y="441" text-anchor="middle" font-family="'Segoe UI',sans-serif" font-size="10" fill="#8b949e">관절 각도 계산 (arccos)</text>
  <text x="972" y="458" text-anchor="middle" font-family="'Segoe UI',sans-serif" font-size="9" fill="#58a6ff">user_keypoints[]</text>

  <!-- Arrows camera → mediapipe, mediapipe → score -->
  <line x1="972" y1="310" x2="972" y2="340" stroke="#58a6ff" stroke-width="2" marker-end="url(#arW)"/>
  <line x1="1080" y1="405" x2="1140" y2="405" stroke="#58a6ff" stroke-width="2" marker-end="url(#arW)"/>

  <!-- SCORE-1: Alignment Scorer -->
  <g filter="url(#shadow)">
    <rect x="1140" y="310" width="240" height="160" rx="10" fill="url(#card)" stroke="#00ff99" stroke-width="1.8"/>
    <rect x="1140" y="310" width="5" height="160" rx="2" fill="#00ff99"/>
  </g>
  <text x="1262" y="338" text-anchor="middle" font-family="'Segoe UI',sans-serif" font-size="13" font-weight="700" fill="#00ff99">자세 정렬 점수</text>
  <text x="1262" y="358" text-anchor="middle" font-family="'Segoe UI',sans-serif" font-size="11" fill="#e6edf3">cosine similarity</text>
  <text x="1262" y="375" text-anchor="middle" font-family="'Segoe UI',sans-serif" font-size="10" fill="#8b949e">user_kp vs target_kp</text>
  <text x="1262" y="392" text-anchor="middle" font-family="'Segoe UI',sans-serif" font-size="10" fill="#8b949e">joint_angle_diff (°)</text>
  <text x="1262" y="409" text-anchor="middle" font-family="'Segoe UI',sans-serif" font-size="10" fill="#8b949e">spine_alignment check</text>
  <!-- Score bar -->
  <rect x="1155" y="420" width="210" height="14" rx="7" fill="#30363d"/>
  <rect x="1155" y="420" width="158" height="14" rx="7" fill="#00ff99" opacity="0.7"/>
  <text x="1262" y="432" text-anchor="middle" font-family="'Segoe UI',sans-serif" font-size="9" fill="#0d1117" font-weight="700">75%</text>
  <text x="1262" y="452" text-anchor="middle" font-family="'Segoe UI',sans-serif" font-size="10" fill="#8b949e">threshold: ≥ 80% → ✓</text>
  <text x="1262" y="462" text-anchor="middle" font-family="'Segoe UI',sans-serif" font-size="9" fill="#00ff99">alignment_score 0–1</text>

  <!-- Arrows score → HUD + corrective cue -->
  <line x1="1380" y1="390" x2="1440" y2="390" stroke="#00ff99" stroke-width="2" marker-end="url(#arG)"/>
  <!-- Corrective cue loop back to Cue Engine -->
  <path d="M1262,470 C1262,510 380,510 380,260" fill="none" stroke="#ff7b72" stroke-width="1.5" stroke-dasharray="6,4" marker-end="url(#arR)"/>

  <!-- HUD: Feedback HUD -->
  <g filter="url(#shadow)">
    <rect x="1440" y="280" width="320" height="290" rx="12" fill="url(#card)" stroke="#00ff99" stroke-width="2"/>
    <rect x="1440" y="280" width="5" height="290" rx="2" fill="#00ff99"/>
  </g>
  <text x="1602" y="310" text-anchor="middle" font-family="'Segoe UI',sans-serif" font-size="14" font-weight="700" fill="#00ff99">실시간 피드백 HUD</text>
  <line x1="1455" y1="320" x2="1750" y2="320" stroke="#30363d" stroke-width="1"/>

  <!-- HUD items -->
  <!-- Good signal -->
  <rect x="1455" y="330" width="295" height="40" rx="6" fill="url(#okCard)" stroke="#00ff99" stroke-width="1"/>
  <text x="1475" y="356" font-family="'Segoe UI',sans-serif" font-size="12" fill="#00ff99">✓ 척추 정렬 양호</text>
  <text x="1720" y="356" text-anchor="end" font-family="'Segoe UI',sans-serif" font-size="11" fill="#00ff99" font-weight="700">92%</text>

  <!-- Warning signal -->
  <rect x="1455" y="378" width="295" height="40" rx="6" fill="url(#killCard)" stroke="#ff7b72" stroke-width="1"/>
  <text x="1475" y="404" font-family="'Segoe UI',sans-serif" font-size="12" fill="#ff7b72">⚠ 오른 무릎 각도 수정</text>
  <text x="1720" y="404" text-anchor="end" font-family="'Segoe UI',sans-serif" font-size="11" fill="#ff7b72" font-weight="700">63%</text>

  <!-- Corrective cue display -->
  <rect x="1455" y="426" width="295" height="50" rx="6" fill="#1e2530" stroke="#f97316" stroke-width="1"/>
  <text x="1475" y="447" font-family="'Segoe UI',sans-serif" font-size="11" font-weight="700" fill="#f97316">▶ 교정 큐잉</text>
  <text x="1475" y="464" font-family="'Segoe UI',sans-serif" font-size="11" fill="#e6edf3">"무릎을 발끝 방향으로 맞춰요"</text>

  <!-- Landmark overlay -->
  <rect x="1455" y="484" width="295" height="40" rx="6" fill="#1a1a2e" stroke="#58a6ff" stroke-width="1"/>
  <text x="1475" y="500" font-family="'Segoe UI',sans-serif" font-size="11" fill="#58a6ff">🦴 스켈레톤 오버레이</text>
  <text x="1475" y="515" font-family="'Segoe UI',sans-serif" font-size="10" fill="#8b949e">green=ok · red=misaligned joints</text>

  <!-- Hold timer -->
  <rect x="1455" y="532" width="140" height="24" rx="5" fill="#0d1117" stroke="#f59e0b" stroke-width="1"/>
  <text x="1475" y="549" font-family="'Segoe UI',sans-serif" font-size="11" fill="#f59e0b">⏱ 3 / 5초 유지중</text>
  <!-- Progress circle/arc hint -->
  <circle cx="1720" cy="544" r="14" fill="none" stroke="#30363d" stroke-width="3"/>
  <circle cx="1720" cy="544" r="14" fill="none" stroke="#f59e0b" stroke-width="3" stroke-dasharray="53 88" stroke-linecap="round" transform="rotate(-90,1720,544)"/>
  <text x="1720" y="549" text-anchor="middle" font-family="'Segoe UI',sans-serif" font-size="10" fill="#f59e0b" font-weight="700">3s</text>

  <!-- ═══ BOTTOM ROW: SUPPORTING TECH NODES ═══ -->
  <line x1="40" y1="640" x2="1760" y2="640" stroke="#30363d" stroke-width="1" stroke-dasharray="6,4"/>
  <text x="900" y="662" text-anchor="middle" font-family="'Segoe UI',sans-serif" font-size="12" font-weight="700" fill="#8b949e" letter-spacing="1">SUPPORTING TECHNOLOGY</text>

  <!-- Tech boxes bottom row -->
  <g filter="url(#shadow)">
    <rect x="30" y="680" width="210" height="80" rx="8" fill="url(#card)" stroke="#30363d" stroke-width="1.2"/>
  </g>
  <text x="135" y="706" text-anchor="middle" font-family="'Segoe UI',sans-serif" font-size="12" font-weight="600" fill="#e6edf3">Ollama Mistral 7B</text>
  <text x="135" y="722" text-anchor="middle" font-family="'Segoe UI',sans-serif" font-size="10" fill="#8b949e">큐잉 스크립트 생성</text>
  <text x="135" y="737" text-anchor="middle" font-family="'Segoe UI',sans-serif" font-size="10" fill="#8b949e">로컬 추론 · 스트리밍</text>
  <text x="135" y="752" text-anchor="middle" font-family="'Segoe UI',sans-serif" font-size="9" fill="#c084fc">llm_service.py</text>

  <g filter="url(#shadow)">
    <rect x="260" y="680" width="210" height="80" rx="8" fill="url(#card)" stroke="#30363d" stroke-width="1.2"/>
  </g>
  <text x="365" y="706" text-anchor="middle" font-family="'Segoe UI',sans-serif" font-size="12" font-weight="600" fill="#e6edf3">edge-TTS / pyttsx3</text>
  <text x="365" y="722" text-anchor="middle" font-family="'Segoe UI',sans-serif" font-size="10" fill="#8b949e">한국어 음성 합성</text>
  <text x="365" y="737" text-anchor="middle" font-family="'Segoe UI',sans-serif" font-size="10" fill="#8b949e">여성 음성 · 속도 조절</text>
  <text x="365" y="752" text-anchor="middle" font-family="'Segoe UI',sans-serif" font-size="9" fill="#c084fc">MS Edge TTS API</text>

  <g filter="url(#shadow)">
    <rect x="490" y="680" width="210" height="80" rx="8" fill="url(#card)" stroke="#30363d" stroke-width="1.2"/>
  </g>
  <text x="595" y="706" text-anchor="middle" font-family="'Segoe UI',sans-serif" font-size="12" font-weight="600" fill="#e6edf3">Three.js / Canvas 2D</text>
  <text x="595" y="722" text-anchor="middle" font-family="'Segoe UI',sans-serif" font-size="10" fill="#8b949e">스틱맨 / 아바타 렌더</text>
  <text x="595" y="737" text-anchor="middle" font-family="'Segoe UI',sans-serif" font-size="10" fill="#8b949e">keypoint tween 애니메이션</text>
  <text x="595" y="752" text-anchor="middle" font-family="'Segoe UI',sans-serif" font-size="9" fill="#58a6ff">React component</text>

  <g filter="url(#shadow)">
    <rect x="720" y="680" width="210" height="80" rx="8" fill="url(#card)" stroke="#30363d" stroke-width="1.2"/>
  </g>
  <text x="825" y="706" text-anchor="middle" font-family="'Segoe UI',sans-serif" font-size="12" font-weight="600" fill="#e6edf3">MediaPipe Pose</text>
  <text x="825" y="722" text-anchor="middle" font-family="'Segoe UI',sans-serif" font-size="10" fill="#8b949e">BlazePose GHUM 33pt</text>
  <text x="825" y="737" text-anchor="middle" font-family="'Segoe UI',sans-serif" font-size="10" fill="#8b949e">Python / JS WASM</text>
  <text x="825" y="752" text-anchor="middle" font-family="'Segoe UI',sans-serif" font-size="9" fill="#58a6ff">pose_estimation.py</text>

  <g filter="url(#shadow)">
    <rect x="950" y="680" width="210" height="80" rx="8" fill="url(#card)" stroke="#30363d" stroke-width="1.2"/>
  </g>
  <text x="1055" y="706" text-anchor="middle" font-family="'Segoe UI',sans-serif" font-size="12" font-weight="600" fill="#e6edf3">WebRTC / OpenCV</text>
  <text x="1055" y="722" text-anchor="middle" font-family="'Segoe UI',sans-serif" font-size="10" fill="#8b949e">카메라 스트림 캡처</text>
  <text x="1055" y="737" text-anchor="middle" font-family="'Segoe UI',sans-serif" font-size="10" fill="#8b949e">프레임 전처리 · 크롭</text>
  <text x="1055" y="752" text-anchor="middle" font-family="'Segoe UI',sans-serif" font-size="9" fill="#58a6ff">getUserMedia()</text>

  <g filter="url(#shadow)">
    <rect x="1180" y="680" width="210" height="80" rx="8" fill="url(#card)" stroke="#30363d" stroke-width="1.2"/>
  </g>
  <text x="1285" y="706" text-anchor="middle" font-family="'Segoe UI',sans-serif" font-size="12" font-weight="600" fill="#e6edf3">Cosine Similarity</text>
  <text x="1285" y="722" text-anchor="middle" font-family="'Segoe UI',sans-serif" font-size="10" fill="#8b949e">관절 각도 벡터 비교</text>
  <text x="1285" y="737" text-anchor="middle" font-family="'Segoe UI',sans-serif" font-size="10" fill="#8b949e">NumPy / SciPy</text>
  <text x="1285" y="752" text-anchor="middle" font-family="'Segoe UI',sans-serif" font-size="9" fill="#00ff99">alignment_scorer.py</text>

  <g filter="url(#shadow)">
    <rect x="1410" y="680" width="210" height="80" rx="8" fill="url(#card)" stroke="#30363d" stroke-width="1.2"/>
  </g>
  <text x="1515" y="706" text-anchor="middle" font-family="'Segoe UI',sans-serif" font-size="12" font-weight="600" fill="#e6edf3">Canvas Overlay HUD</text>
  <text x="1515" y="722" text-anchor="middle" font-family="'Segoe UI',sans-serif" font-size="10" fill="#8b949e">스켈레톤 · 점수 · 큐잉</text>
  <text x="1515" y="737" text-anchor="middle" font-family="'Segoe UI',sans-serif" font-size="10" fill="#8b949e">카메라 위 오버레이</text>
  <text x="1515" y="752" text-anchor="middle" font-family="'Segoe UI',sans-serif" font-size="9" fill="#00ff99">React canvas ref</text>

  <g filter="url(#shadow)">
    <rect x="1640" y="680" width="120" height="80" rx="8" fill="url(#killCard)" stroke="#ff7b72" stroke-width="1.2"/>
  </g>
  <text x="1700" y="706" text-anchor="middle" font-family="'Segoe UI',sans-serif" font-size="12" font-weight="600" fill="#ff7b72">부상 방지</text>
  <text x="1700" y="722" text-anchor="middle" font-family="'Segoe UI',sans-serif" font-size="10" fill="#ffa198">score &lt; 40%</text>
  <text x="1700" y="737" text-anchor="middle" font-family="'Segoe UI',sans-serif" font-size="10" fill="#ffa198">→ 즉시 중단 큐</text>
  <text x="1700" y="752" text-anchor="middle" font-family="'Segoe UI',sans-serif" font-size="9" fill="#ff7b72">Kill-Switch 연동</text>

  <!-- Legend -->
  <line x1="40" y1="810" x2="1760" y2="810" stroke="#30363d" stroke-width="1.5"/>
  <rect x="40" y="820" width="1720" height="60" rx="8" fill="#161b22" stroke="#30363d" stroke-width="1"/>
  <rect x="58" y="836" width="12" height="12" rx="2" fill="#f97316"/>
  <text x="78" y="847" font-family="'Segoe UI',sans-serif" font-size="11" fill="#8b949e">큐 생성 · 아바타 (Pipeline D 핵심)</text>
  <rect x="300" y="836" width="12" height="12" rx="2" fill="#c084fc"/>
  <text x="320" y="847" font-family="'Segoe UI',sans-serif" font-size="11" fill="#8b949e">TTS 음성 안내</text>
  <rect x="460" y="836" width="12" height="12" rx="2" fill="#58a6ff"/>
  <text x="480" y="847" font-family="'Segoe UI',sans-serif" font-size="11" fill="#8b949e">카메라 / MediaPipe</text>
  <rect x="640" y="836" width="12" height="12" rx="2" fill="#00ff99"/>
  <text x="660" y="847" font-family="'Segoe UI',sans-serif" font-size="11" fill="#8b949e">정렬 점수 · HUD</text>
  <rect x="810" y="836" width="12" height="12" rx="2" fill="#ff7b72"/>
  <text x="830" y="847" font-family="'Segoe UI',sans-serif" font-size="11" fill="#8b949e">부상 방지 Kill-Switch 연동</text>
  <line x1="1020" y1="836" x2="1052" y2="836" stroke="#ff7b72" stroke-width="1.5" stroke-dasharray="5,3"/>
  <text x="1062" y="847" font-family="'Segoe UI',sans-serif" font-size="11" fill="#8b949e">교정 큐 피드백 루프 (점수 → 큐잉 엔진)</text>
  <rect x="58" y="855" width="12" height="12" rx="2" fill="#f59e0b"/>
  <text x="78" y="866" font-family="'Segoe UI',sans-serif" font-size="11" fill="#8b949e">hold 타이머 (초 단위 카운트)</text>
  <text x="460" y="866" font-family="'Segoe UI',sans-serif" font-size="11" fill="#8b949e">모든 자세 코드: BlazePose 33 랜드마크 기준</text>
  <text x="900" y="866" font-family="'Segoe UI',sans-serif" font-size="11" fill="#8b949e">정렬 임계값: ≥ 80% → 다음 포즈 진행 · &lt;40% → Kill-Switch 중단</text>
</svg>